# xmcd
#
# Track frame offsets:
#	150
#	15935
#	36540
#	55172
#	73140
#	89350
#	110017
#	131372
#	147037
#	167612
#	187892
#	206195
#	221332
#	240442
#	254237
#	266935
#	279925
#	298860
#	317030
#
# Disc length: 4382 seconds
#
# Revision: 1
# Processed by: cddbd v1.5PL3 Copyright (c) Steve Scherf et al.
# Submitted via: CDex 1.50Beta5
#
DISCID=25111c13
DTITLE=Various Artist - 金田一耕助の冒険{特別版}
DYEAR=2000
DGENRE=Soundtrack
TTITLE0=高田弘/金田一耕助のテーマ
TTITLE1=成田由多可/八つ墓村
TTITLE2=仮面舞踏会
TTITLE3=本陣殺人事件
TTITLE4=獄門島
TTITLE5=羽田健太郎/悪魔の手毬唄
TTITLE6=羽田健太郎/迷路荘の惨劇
TTITLE7=羽田健太郎/悪魔が来たりて笛を吹く
TTITLE8=羽田健太郎/三つ首塔
TTITLE9=羽田健太郎/犬神家の一族
TTITLE10=金子由香利/愛のバラード
TTITLE11=金子由香利/仮面
TTITLE12=塚田三喜夫/愛の女王蜂
TTITLE13=少女夜曲
TTITLE14=茶木みやこ/まぼろしの人
TTITLE15=茶木みやこ/あざみの如く棘あれば
TTITLE16=茶木みやこ/あなたは何を
TTITLE17=古谷一行/糸電話
TTITLE18=見えない雨の降る街を
EXTD=
EXTT0=
EXTT1=
EXTT2=
EXTT3=
EXTT4=
EXTT5=
EXTT6=
EXTT7=
EXTT8=
EXTT9=
EXTT10=
EXTT11=
EXTT12=
EXTT13=
EXTT14=
EXTT15=
EXTT16=
EXTT17=
EXTT18=
PLAYORDER=
